<?xml version="1.0" encoding="UTF-8"?>
<svg width="71px" height="40px" viewBox="0 0 71 40" version="1.1" xmlns="http://www.w3.org/2000/svg" xmlns:xlink="http://www.w3.org/1999/xlink">
    <title>Group</title>
    <g id="Page-1" stroke="none" stroke-width="1" fill="none" fill-rule="evenodd">
        <g id="Group" fill-rule="nonzero">
            <rect id="Rectangle" fill="#68B15C" x="0" y="0" width="70.1829" height="39.7421" rx="19.87105"></rect>
            <rect id="Rectangle" stroke="#68B15C" stroke-width="1.69115" fill="#F7F7FC" x="32" y="1" width="37.7867" height="38.0509" rx="18.89335"></rect>
            <path d="M16.5502,13.7051 C16.7032,13.7051 16.8499,13.6443 16.958,13.5362 C17.0662,13.428 17.127,13.2813 17.127,13.1283 L17.127,11.1672 C17.127,11.0142 17.0662,10.8675 16.958,10.7593 C16.8499,10.6512 16.7032,10.5904 16.5502,10.5904 C16.3972,10.5904 16.2505,10.6512 16.1423,10.7593 C16.0342,10.8675 15.9734,11.0142 15.9734,11.1672 L15.9734,13.1283 C15.9734,13.2813 16.0342,13.428 16.1423,13.5362 C16.2505,13.6443 16.3972,13.7051 16.5502,13.7051 Z" id="Path" fill-opacity="0.04" fill="#FFFFFF"></path>
            <path d="M16.5502,27.1907 C16.3972,27.1907 16.2505,27.2515 16.1423,27.3596 C16.0342,27.4678 15.9734,27.6145 15.9734,27.7675 L15.9734,29.7286 C15.9734,29.8816 16.0342,30.0283 16.1423,30.1365 C16.2505,30.2446 16.3972,30.3054 16.5502,30.3054 C16.7032,30.3054 16.8499,30.2446 16.958,30.1365 C17.0662,30.0283 17.127,29.8816 17.127,29.7286 L17.127,27.7675 C17.127,27.6145 17.0662,27.4678 16.958,27.3596 C16.8499,27.2515 16.7032,27.1907 16.5502,27.1907 Z" id="Path" fill-opacity="0.04" fill="#FFFFFF"></path>
            <path d="M10.9669,15.6835 C11.0741,15.781 11.2141,15.8345 11.3591,15.8334166 C11.435,15.8339 11.5102,15.8193 11.5805,15.7906 C11.6508,15.7619 11.7147,15.7196 11.7686,15.6662 C11.8227,15.6125 11.8656,15.5487 11.8949,15.4785 C11.9241,15.4082 11.9392,15.3328 11.9392,15.2566 C11.9392,15.1805 11.9241,15.1051 11.8949,15.0348 C11.8656,14.9645 11.8227,14.9007 11.7686,14.8471 L10.3958,13.4801 C10.2855,13.3856 10.1435,13.3362 9.9984,13.3418 C9.8532,13.3474 9.7155,13.4076 9.6128,13.5103 C9.5101,13.6131 9.4499,13.7508 9.4443,13.8959 C9.4387,14.0411 9.488,14.183 9.5825,14.2934 L10.9669,15.6835 Z" id="Path" fill-opacity="0.04" fill="#FFFFFF"></path>
            <path d="M22.1338,25.2123 C22.08,25.1585 22.0162,25.1158 21.9459,25.0867 C21.8757,25.0576 21.8004,25.0426 21.7243,25.0426 C21.6482,25.0426 21.5729,25.0576 21.5027,25.0867 C21.4324,25.1158 21.3686,25.1585 21.3148,25.2123 C21.261,25.266 21.2183,25.3299 21.1892,25.4002 C21.1601,25.4704 21.1451,25.5457 21.1451,25.6218 C21.1451,25.6978 21.1601,25.7732 21.1892,25.8434 C21.2183,25.9137 21.261,25.9775 21.3148,26.0313 L22.7049,27.4156 C22.7583,27.4701 22.822,27.5135 22.8923,27.5432 C22.9626,27.5729 23.0381,27.5883 23.1144,27.5887 C23.2665,27.5865 23.4116,27.5243 23.5181,27.4156 C23.6256,27.3076 23.6859,27.1614 23.6859,27.009 C23.6859,26.8566 23.6256,26.7104 23.5181,26.6023 L22.1338,25.2123 Z" id="Path" fill-opacity="0.04" fill="#FFFFFF"></path>
            <path d="M9.8076,20.448 C9.8076,20.295 9.7468,20.1483 9.6386,20.0401 C9.5305,19.932 9.3838,19.8712 9.2308,19.8712 L7.26967,19.8712 C7.11669,19.8712 6.96998,19.932 6.86181,20.0401 C6.75364,20.1483 6.69287,20.295 6.69287,20.448 C6.69287,20.601 6.75364,20.7477 6.86181,20.8558 C6.96998,20.964 7.11669,21.0248 7.26967,21.0248 L9.2308,21.0248 C9.3838,21.0248 9.5305,20.964 9.6386,20.8558 C9.7468,20.7477 9.8076,20.601 9.8076,20.448 Z" id="Path" fill-opacity="0.04" fill="#FFFFFF"></path>
            <path d="M25.8308,19.8712 L23.8697,19.8712 C23.7167,19.8712 23.57,19.932 23.4618,20.0401 C23.3537,20.1483 23.2929,20.295 23.2929,20.448 C23.2929,20.601 23.3537,20.7477 23.4618,20.8558 C23.57,20.964 23.7167,21.0248 23.8697,21.0248 L25.8308,21.0248 C25.9838,21.0248 26.1305,20.964 26.2387,20.8558 C26.3468,20.7477 26.4076,20.601 26.4076,20.448 C26.4076,20.295 26.3468,20.1483 26.2387,20.0401 C26.1305,19.932 25.9838,19.8712 25.8308,19.8712 Z" id="Path" fill-opacity="0.04" fill="#FFFFFF"></path>
            <path d="M10.9668,25.2123 L9.5825,26.6023 C9.5015,26.6827 9.4461,26.7852 9.4234,26.897 C9.4007,27.0088 9.4116,27.1248 9.4549,27.2304 C9.4981,27.336 9.5716,27.4263 9.6662,27.4901 C9.7608,27.5539 9.8722,27.5882 9.9862,27.5887 C10.0626,27.5883 10.1381,27.5729 10.2083,27.5432 C10.2786,27.5135 10.3423,27.4701 10.3958,27.4156 L11.7858,26.0313 C11.8945,25.9227 11.9555,25.7754 11.9555,25.6218 C11.9555,25.4682 11.8945,25.3209 11.7858,25.2123 C11.6772,25.1037 11.5299,25.0426 11.3763,25.0426 C11.2227,25.0426 11.0754,25.1037 10.9668,25.2123 Z" id="Path" fill-opacity="0.04" fill="#FFFFFF"></path>
            <path d="M21.7416,15.8335081 C21.8175,15.8339 21.8927,15.8194 21.963,15.7907 C22.0333,15.7619 22.0972,15.7197 22.1511,15.6662 L23.5354,14.2761 C23.6428,14.168 23.7031,14.0219 23.7031,13.8695 C23.7031,13.7171 23.6428,13.5709 23.5354,13.4628 C23.4273,13.3554 23.2812,13.2951 23.1288,13.2951 C22.9764,13.2951 22.8302,13.3554 22.7221,13.4628 L21.3321,14.8471 C21.278,14.9008 21.2351,14.9646 21.2058,15.0348 C21.1765,15.1051 21.1614,15.1805 21.1614,15.2567 C21.1614,15.3328 21.1765,15.4082 21.2058,15.4785 C21.2351,15.5488 21.278,15.6126 21.3321,15.6662 C21.3859,15.7197 21.4499,15.7619 21.5201,15.7907 C21.5904,15.8194 21.6657,15.8339 21.7416,15.8335081 Z" id="Path" fill-opacity="0.04" fill="#FFFFFF"></path>
            <path d="M16.625,14.5358 C15.4663,14.5209 14.3293,14.8509 13.3586,15.4838 C12.3879,16.1168 11.6274,17.024 11.1736,18.0903 C10.7199,19.1566 10.5934,20.3337 10.8103,21.472 C11.0272,22.6103 11.5777,23.6584 12.3918,24.4831 C13.2059,25.3077 14.2468,25.8717 15.3822,26.1033 C16.5176,26.3349 17.6963,26.2237 18.7683,25.7837 C19.8403,25.3438 20.7574,24.595 21.4028,23.6326 C22.0482,22.6701 22.3928,21.5375 22.3929729,20.3787 C22.4006,18.8397 21.7978,17.3604 20.7166,16.2652 C19.6353,15.1699 18.164,14.548 16.625,14.5358 Z M16.625,25.0623 C15.6942,25.0772 14.7801,24.8147 13.999,24.3083 C13.2179,23.8019 12.6052,23.0745 12.2389,22.2187 C11.8726,21.363 11.7693,20.4175 11.9422,19.5028 C12.115,18.5881 12.5562,17.7456 13.2095,17.0825 C13.8628,16.4194 14.6987,15.9657 15.6107,15.7792 C16.5228,15.5928 17.4696,15.682 18.3308,16.0355 C19.1919,16.389 19.9284,16.9908 20.4463,17.7643 C20.9643,18.5377 21.2404,19.4479 21.2393591,20.3787 C21.2455,21.6108 20.7635,22.7952 19.8988,23.6729 C19.0341,24.5506 17.857,25.0501 16.625,25.0623 Z" id="Shape" fill-opacity="0.04" fill="#FFFFFF"></path>
            <path d="M49.625,13.495632 C49.7075,13.595932 49.7581,13.718632 49.7702,13.848032 C49.7822,13.977332 49.7552,14.107332 49.6926,14.221132 C49.2038,15.118732 48.9485,16.124832 48.9502,17.146832 C48.9502,20.546932 51.722,23.300132 55.1382,23.300132 C55.5838,23.300132 56.0176,23.253632 56.4344,23.164832 C56.5622,23.137132 56.6953,23.147732 56.8171,23.195232 C56.9389,23.242732 57.0441,23.325132 57.1193,23.432032 C57.1988,23.543132 57.2393,23.677432 57.2346,23.814032 C57.2299,23.950532 57.1801,24.081732 57.0931,24.187132 C56.4299,25.001732 55.5933,25.658132 54.6442,26.108432 C53.6951,26.558632 52.6575,26.791432 51.607,26.7898402 C47.7089,26.7898402 44.5515,23.649332 44.5515,19.779932 C44.5515,16.867832 46.3391,14.369932 48.8843,13.311332 C49.0111,13.257732 49.1518,13.246732 49.2854,13.279932 C49.4189,13.313232 49.5381,13.388932 49.625,13.495632 Z M48.6593,14.369132 C47.6807,14.894032 46.8625,15.674432 46.2918,16.627132 C45.7212,17.579832 45.4193,18.669432 45.4182,19.779932 C45.4182,23.179232 48.1909,25.9324411 51.607,25.9324411 C52.4251,25.933832 53.2353,25.772932 53.9908,25.459132 C54.7462,25.145332 55.432,24.684832 56.0083,24.104232 C55.7233,24.139732 55.4333,24.157532 55.1382,24.157532 C51.24,24.157532 48.0835,21.017032 48.0835,17.147732 C48.0835,16.160932 48.2881,15.221432 48.6593,14.369132 Z" id="Shape" fill="#68B15C"></path>
        </g>
    </g>
</svg>