<?xml version="1.0" encoding="UTF-8"?>
<svg width="73px" height="40px" viewBox="0 0 73 40" version="1.1" xmlns="http://www.w3.org/2000/svg" xmlns:xlink="http://www.w3.org/1999/xlink">
    <title>Group</title>
    <g id="Page-1" stroke="none" stroke-width="1" fill="none" fill-rule="evenodd">
        <g id="Group" transform="translate(1.000000, 0.000000)" fill-rule="nonzero">
            <rect id="Rectangle" fill="#68B15C" x="1" y="0" width="70.1829" height="39.7421" rx="19.87105"></rect>
            <rect id="Rectangle" stroke="#68B15C" stroke-width="1.69115" fill="#F7F7FC" x="0.75378" y="1.08679" width="37.7867" height="38.0509" rx="18.89335"></rect>
            <path d="M52.3999,13.5826 C52.4825,13.6829 52.533,13.8057 52.5451,13.935 C52.5572,14.0643 52.5302,14.1943 52.4676,14.3081 C51.9787,15.2057 51.7234,16.2118 51.7252,17.2338 C51.7252,20.6339 54.497,23.3871 57.9131,23.3871 C58.3587,23.3871 58.7925,23.3406 59.2094,23.2518 C59.3372,23.2241 59.4703,23.2347 59.5921,23.2822 C59.7139,23.3298 59.819,23.4121 59.8943,23.519 C59.9738,23.6302 60.0143,23.7645 60.0095,23.901 C60.0048,24.0376 59.9551,24.1687 59.8681,24.2741 C59.2049,25.0888 58.3682,25.7452 57.4191,26.1954 C56.4701,26.6457 55.4324,26.8785 54.382,26.8768092 C50.4839,26.8768092 47.3265,23.7363 47.3265,19.867 C47.3265,16.9548 49.114,14.457 51.6592,13.3983 C51.786,13.3447 51.9267,13.3337 52.0603,13.367 C52.1939,13.4002 52.3131,13.4759 52.3999,13.5826 Z M51.4343,14.4561 C50.4556,14.9811 49.6375,15.7614 49.0668,16.7141 C48.4961,17.6668 48.1942,18.7564 48.1932,19.867 C48.1932,23.2662 50.9658,26.0194091 54.382,26.0194091 C55.2,26.0208 56.0102,25.86 56.7657,25.5462 C57.5212,25.2324 58.2069,24.7718 58.7832,24.1912 C58.4982,24.2268 58.2082,24.2445 57.9131,24.2445 C54.015,24.2445 50.8585,21.104 50.8585,17.2347 C50.8585,16.2479 51.0631,15.3085 51.4343,14.4561 Z" id="Shape" fill-opacity="0.17" fill="#FFFFFF"></path>
            <path d="M19.6471,13.3696 C19.8001,13.3696 19.9468,13.3088 20.055,13.2006 C20.1631,13.0925 20.2239,12.9458 20.2239,12.7928 L20.2239,10.8317 C20.2239,10.6787 20.1631,10.532 20.055,10.4238 C19.9468,10.3157 19.8001,10.2549 19.6471,10.2549 C19.4941,10.2549 19.3474,10.3157 19.2393,10.4238 C19.1311,10.532 19.0703,10.6787 19.0703,10.8317 L19.0703,12.7928 C19.0703,12.9458 19.1311,13.0925 19.2393,13.2006 C19.3474,13.3088 19.4941,13.3696 19.6471,13.3696 Z" id="Path" fill="#68B15C"></path>
            <path d="M19.6471,26.8552 C19.4941,26.8552 19.3474,26.916 19.2393,27.0242 C19.1311,27.1323 19.0703,27.279 19.0703,27.432 L19.0703,29.3931 C19.0703,29.5461 19.1311,29.6928 19.2393,29.801 C19.3474,29.9092 19.4941,29.9699 19.6471,29.9699 C19.8001,29.9699 19.9468,29.9092 20.055,29.801 C20.1631,29.6928 20.2239,29.5461 20.2239,29.3931 L20.2239,27.432 C20.2239,27.279 20.1631,27.1323 20.055,27.0242 C19.9468,26.916 19.8001,26.8552 19.6471,26.8552 Z" id="Path" fill="#68B15C"></path>
            <path d="M14.0638,15.348 C14.171,15.4455 14.3111,15.499 14.456,15.4979166 C14.5319,15.4984 14.6072,15.4838 14.6774,15.4551 C14.7477,15.4264 14.8116,15.3841 14.8655,15.3307 C14.9196,15.2771 14.9625,15.2133 14.9918,15.143 C15.0211,15.0727 15.0361,14.9973 15.0361,14.9211 C15.0361,14.845 15.0211,14.7696 14.9918,14.6993 C14.9625,14.629 14.9196,14.5652 14.8655,14.5116 L13.4927,13.1446 C13.3824,13.0501 13.2405,13.0007 13.0953,13.0064 C12.9501,13.012 12.8124,13.0721 12.7097,13.1749 C12.607,13.2776 12.5468,13.4153 12.5412,13.5605 C12.5356,13.7056 12.585,13.8476 12.6795,13.9579 L14.0638,15.348 Z" id="Path" fill="#68B15C"></path>
            <path d="M25.2307,24.8768 C25.177,24.823 25.1131,24.7803 25.0429,24.7512 C24.9726,24.7221 24.8973,24.7072 24.8212,24.7072 C24.7452,24.7072 24.6699,24.7221 24.5996,24.7512 C24.5293,24.7803 24.4655,24.823 24.4117,24.8768 C24.3579,24.9306 24.3153,24.9944 24.2862,25.0647 C24.257,25.1349 24.2421,25.2103 24.2421,25.2863 C24.2421,25.3624 24.257,25.4377 24.2862,25.5079 C24.3153,25.5782 24.3579,25.6421 24.4117,25.6958 L25.8018,27.0801 C25.8552,27.1346 25.9189,27.178 25.9892,27.2077 C26.0595,27.2374 26.135,27.2529 26.2113,27.2532 C26.3634,27.251 26.5086,27.1888 26.6151,27.0801 C26.7225,26.9721 26.7828,26.8259 26.7828,26.6735 C26.7828,26.5211 26.7225,26.3749 26.6151,26.2669 L25.2307,24.8768 Z" id="Path" fill="#68B15C"></path>
            <path d="M12.9045,20.1125 C12.9045,19.9595 12.8437,19.8128 12.7356,19.7046 C12.6274,19.5965 12.4807,19.5357 12.3277,19.5357 L10.3666,19.5357 C10.2136,19.5357 10.0669,19.5965 9.9587,19.7046 C9.8506,19.8128 9.7898,19.9595 9.7898,20.1125 C9.7898,20.2655 9.8506,20.4122 9.9587,20.5204 C10.0669,20.6285 10.2136,20.6893 10.3666,20.6893 L12.3277,20.6893 C12.4807,20.6893 12.6274,20.6285 12.7356,20.5204 C12.8437,20.4122 12.9045,20.2655 12.9045,20.1125 Z" id="Path" fill="#68B15C"></path>
            <path d="M28.9277,19.5357 L26.9666,19.5357 C26.8137,19.5357 26.6669,19.5965 26.5588,19.7046 C26.4506,19.8128 26.3898,19.9595 26.3898,20.1125 C26.3898,20.2655 26.4506,20.4122 26.5588,20.5204 C26.6669,20.6285 26.8137,20.6893 26.9666,20.6893 L28.9277,20.6893 C29.0807,20.6893 29.2274,20.6285 29.3356,20.5204 C29.4438,20.4122 29.5045,20.2655 29.5045,20.1125 C29.5045,19.9595 29.4438,19.8128 29.3356,19.7046 C29.2274,19.5965 29.0807,19.5357 28.9277,19.5357 Z" id="Path" fill="#68B15C"></path>
            <path d="M14.0637,24.8768 L12.6794,26.2669 C12.5984,26.3472 12.5431,26.4497 12.5203,26.5615 C12.4976,26.6733 12.5086,26.7893 12.5518,26.8949 C12.595,27.0005 12.6686,27.0909 12.7631,27.1546 C12.8577,27.2184 12.9691,27.2527 13.0832,27.2532 C13.1595,27.2529 13.235,27.2374 13.3053,27.2077 C13.3756,27.178 13.4393,27.1346 13.4927,27.0801 L14.8828,25.6958 C14.9914,25.5872 15.0524,25.4399 15.0524,25.2863 C15.0524,25.1327 14.9914,24.9854 14.8828,24.8768 C14.7742,24.7682 14.6268,24.7072 14.4732,24.7072 C14.3196,24.7072 14.1723,24.7682 14.0637,24.8768 Z" id="Path" fill="#68B15C"></path>
            <path d="M24.8385,15.4980124 C24.9144,15.4985 24.9897,15.4839 25.0599,15.4552 C25.1302,15.4265 25.1941,15.3842 25.248,15.3307 L26.6323,13.9407 C26.7398,13.8326 26.8001,13.6864 26.8001,13.534 C26.8001,13.3816 26.7398,13.2355 26.6323,13.1274 C26.5243,13.02 26.3781,12.9597 26.2257,12.9597 C26.0733,12.9597 25.9271,13.02 25.8191,13.1274 L24.429,14.5117 C24.3749,14.5653 24.332,14.6291 24.3027,14.6994 C24.2734,14.7697 24.2584,14.8451 24.2584,14.9212 C24.2584,14.9974 24.2734,15.0728 24.3027,15.143 C24.332,15.2133 24.3749,15.2771 24.429,15.3307 C24.4829,15.3842 24.5468,15.4265 24.6171,15.4552 C24.6873,15.4839 24.7626,15.4985 24.8385,15.4980124 Z" id="Path" fill="#68B15C"></path>
            <path d="M19.7219,14.2003 C18.5632,14.1854 17.4262,14.5154 16.4555,15.1484 C15.4849,15.7813 14.7243,16.6885 14.2705,17.7548 C13.8168,18.8211 13.6903,19.9982 13.9072,21.1365 C14.1241,22.2748 14.6746,23.3229 15.4887,24.1476 C16.3028,24.9723 17.3437,25.5362 18.4791,25.7678 C19.6146,25.9994 20.7932,25.8882 21.8652,25.4482 C22.9373,25.0083 23.8543,24.2595 24.4997,23.2971 C25.1451,22.3347 25.4898,21.2021 25.489971,20.0433 C25.4975,18.5042 24.8947,17.0249 23.8135,15.9297 C22.7323,14.8344 21.2609,14.2125 19.7219,14.2003 Z M19.7219,24.7268 C18.7911,24.7417 17.877,24.4793 17.0959,23.9729 C16.3148,23.4665 15.7021,22.7391 15.3358,21.8833 C14.9695,21.0275 14.8663,20.082 15.0391,19.1673 C15.212,18.2527 15.6531,17.4101 16.3064,16.747 C16.9598,16.0839 17.7956,15.6302 18.7077,15.4438 C19.6197,15.2573 20.5666,15.3465 21.4277,15.7 C22.2888,16.0535 23.0253,16.6553 23.5433,17.4288 C24.0612,18.2023 24.3373,19.1124 24.3363572,20.0433 C24.3424,21.2753 23.8604,22.4597 22.9957,23.3374 C22.131,24.2151 20.9539,24.7147 19.7219,24.7268 Z" id="Shape" fill="#68B15C"></path>
        </g>
    </g>
</svg>